<svg xmlns="http://www.w3.org/2000/svg" width="241.509" height="219.622" viewBox="0 0 241.509 219.622">
  <g id="Group_27719" data-name="Group 27719" transform="translate(0 0)">
    <path id="Path_58" data-name="Path 58" d="M870.716,790.4c-3.078-19.415-11.3-33.07-24.433-40.583-15.848-9.06-33.468-10.827-50.512-12.531l-3.347-.336a383.042,383.042,0,0,0-101.753,2.718,121.661,121.661,0,0,0-23.1,5.594c-9.784,3.625-17.111,8.579-22.393,15.146-9.607,11.955-10.894,27.933-11.926,40.771l-.187,2.276A339.863,339.863,0,0,0,631.9,841.3c.163,5.617.379,11.657.888,17.793,1.066,12.957,3.424,29.6,12.22,43.444,9.779,15.393,25.464,18.6,38.033,19.67,2.934.24,10.913.053,28.4-.379l3.552-.091L745.643,949.8a17.626,17.626,0,0,0,23.919-.187l31.149-29.43c16.376-.5,23.664-.878,27.308-1.623,1.488-.2,3.034-.337,4.6-.476,7-.619,15.718-1.4,22.372-7.466,12.632-11.5,14.994-28.35,16.328-44.61C873.2,843.1,874.854,816.479,870.716,790.4Zm-13.747,74.436c-1.147,13.965-2.9,27.159-11.671,35.152-3.068,2.795-8.353,3.26-13.952,3.765-1.868.162-3.712.332-5.478.571a7.642,7.642,0,0,0-.961.2c-1.051.149-6.255.725-27.361,1.349a7.186,7.186,0,0,0-4.733,1.964l-33.142,31.312a3.167,3.167,0,0,1-4.3.033l-32.782-30.03a7.217,7.217,0,0,0-4.863-1.892h-.178l-6.457.164c-14.859.37-24.677.61-26.818.432-14.134-1.209-21.989-4.988-27.112-13.043-7.105-11.183-9.084-25.595-10.015-36.9-.48-5.8-.692-11.609-.845-17.024a323.58,323.58,0,0,1,1.124-36.248l.182-2.3c.965-12,1.964-24.4,8.8-32.9,3.6-4.485,8.887-7.975,16.164-10.664a107.606,107.606,0,0,1,20.341-4.878,369.365,369.365,0,0,1,98.014-2.621l3.409.34c15.54,1.56,31.615,3.174,44.8,10.707,9.15,5.238,14.994,15.445,17.355,30.337C860.379,817.161,858.775,842.765,856.969,864.832Z" transform="translate(-631.782 -734.767)" fill="#2e2842"/>
    <path id="Path_59" data-name="Path 59" d="M650.029,768.39h.019l59.725-.163a7.2,7.2,0,0,0-.019-14.4h-.02l-59.725.164a7.2,7.2,0,0,0,.02,14.4Z" transform="translate(-589.799 -662.332)" fill="#2e2842"/>
    <path id="Path_60" data-name="Path 60" d="M770.511,745.812H650.029a7.2,7.2,0,0,0,0,14.4H770.511a7.2,7.2,0,0,0,0-14.4Z" transform="translate(-589.799 -692.786)" fill="#2e2842"/>
    <path id="Path_61" data-name="Path 61" d="M744.261,761.169H650.227a7.2,7.2,0,0,0,0,14.4h94.034a7.2,7.2,0,0,0,0-14.4Z" transform="translate(-589.044 -634.413)" fill="#2e2842"/>
  </g>
</svg>
